<?xml version="1.0" encoding="utf-8"?>
<!-- Svg Vector Icons : http://www.onlinewebfonts.com/icon -->
<!DOCTYPE svg PUBLIC "-//W3C//DTD SVG 1.1//EN" "http://www.w3.org/Graphics/SVG/1.1/DTD/svg11.dtd">
<svg version="1.1" xmlns="http://www.w3.org/2000/svg" xmlns:xlink="http://www.w3.org/1999/xlink" x="0px" y="0px" viewBox="0 0 1000 1000" enable-background="new 0 0 1000 1000" xml:space="preserve">
<metadata> Svg Vector Icons : http://www.onlinewebfonts.com/icon </metadata>
<g><g><path d="M68,10.3c0.5,4.7,0.8,8.9,1.2,13.2c3.7,41.6,7.3,83.2,11.1,124.8c4.8,52.8,9.5,105.8,14.2,158.6c4,44.4,7.9,89,11.8,133.5c4.5,50.1,9,100.2,13.5,150.3c3.9,44.4,7.9,89,11.8,133.5c4.8,54.2,9.7,108.3,14.4,162.5c0.3,3.5,1.4,5,4.9,5.9c114.6,32.3,229.1,64.7,343.6,96.9c2.9,0.8,6.3,0.8,9.2,0c115-32.2,229.9-64.5,344.9-96.7c3.9-1.1,5.1-2.8,5.4-6.7c2.4-30.2,5.2-60.3,7.9-90.5c3-33.3,6-66.6,8.9-99.9c2.7-29.8,5.2-59.5,8-89.3c3-33.4,6-66.7,8.9-100c2.6-29.7,5.2-59.5,8-89.3c3-33.2,5.9-66.4,8.9-99.6c2.7-29.9,5.2-59.7,8-89.7c3-33.2,5.9-66.4,8.9-99.6c2.7-30.2,5.4-60.5,8.2-90.8c0.8-9,1.5-18.1,2.4-27.4C643.8,10.3,356.2,10.3,68,10.3z M761.4,297.3c-137.8,0-275.5,0-413.8,0c3.3,37.3,6.5,74.2,9.6,111.2c131.6,0,262.9,0,394.5,0c-1,7.8-2.2,15.2-2.9,22.7c-1.8,18.8-3.6,37.6-5.3,56.3c-3,34-6,68.2-8.9,102.3c-2.6,30.6-5.2,61-8,91.5c-1.7,19.3-3.6,38.6-5.2,57.9c-0.3,3-2.3,3.1-4,3.6c-46.6,12.9-93.2,25.8-139.8,38.5c-25.6,7.1-51.1,14.3-76.7,21.3c-1.1,0.4-2.7,0.1-4-0.2c-72.4-19.9-144.7-39.8-217-59.6c-3.3-0.8-3.4-2.9-3.6-5.2c-1.8-23.2-3.7-46.3-5.4-69.5c-2.4-31.2-4.9-62.3-7.3-93.6c-0.1-0.8-0.1-1.8-0.2-2.9c35.7,0,71.3,0,107.2,0c0.9,10.1,1.9,20.3,2.7,30.2c1.6,17.7,3.2,35.3,4.7,53.1c0.1,2,0.8,2.8,2.7,3.4c38.8,10.3,77.5,20.8,116.4,31.2c1.4,0.4,3,0.2,4.4-0.1c38.3-10.3,76.6-20.7,115-30.9c2.3-0.7,3.3-1.7,3.6-4c4.2-45.3,8.5-90.6,12.9-135.7c0-0.1-0.1-0.4-0.1-0.8c-124.9,0-249.9,0-375.2,0c-9.8-109.3-19.6-218.3-29.4-327.5c181.3,0,361.7,0,543.1,0C768.2,226,764.8,261.5,761.4,297.3z"/></g><g></g><g></g><g></g><g></g><g></g><g></g><g></g><g></g><g></g><g></g><g></g><g></g><g></g><g></g><g></g></g>
</svg>